{
  "accessors": [
    {
      "bufferView": 2,
      "componentType": 5126,
      "count": 881,
      "max": [
        95.07160949707031,
        96.78575134277344,
        31.23973274230957
      ],
      "min": [
        -94.68817901611328,
        -98.03020477294922,
        -23.001562118530273
      ],
      "type": "VEC3"
    },
    {
      "bufferView": 2,
      "byteOffset": 10572,
      "componentType": 5126,
      "count": 881,
      "max": [
        0.9998430013656616,
        0.9985040426254272,
        0.9996735453605652
      ],
      "min": [
        -0.999751627445221,
        -0.997176468372345,
        -0.9995399117469788
      ],
      "type": "VEC3"
    },
    {
      "bufferView": 1,
      "componentType": 5126,
      "count": 881,
      "max": [
        0.9948244690895081,
        0.9999040365219116
      ],
      "min": [
        0.0038982201367616653,
        0.007833421230316162
      ],
      "type": "VEC2"
    },
    {
      "bufferView": 0,
      "componentType": 5125,
      "count": 2877,
      "type": "SCALAR"
    }
  ],
  "asset": {
    "extras": {
      "author": "TheBGamer (https://sketchfab.com/TheBGamer)",
      "license": "CC-BY-4.0 (http://creativecommons.org/licenses/by/4.0/)",
      "source": "https://sketchfab.com/3d-models/gta-vice-city-white-male-old-biker-bka-93a92107a560475b986469c893d6ae36",
      "title": "GTA: Vice City (White Male Old Biker)-bka"
    },
    "generator": "Sketchfab-16.12.0",
    "version": "2.0"
  },
  "bufferViews": [
    {
      "buffer": 0,
      "byteLength": 11508,
      "name": "floatBufferViews",
      "target": 34963
    },
    {
      "buffer": 0,
      "byteLength": 7048,
      "byteOffset": 11508,
      "byteStride": 8,
      "name": "floatBufferViews",
      "target": 34962
    },
    {
      "buffer": 0,
      "byteLength": 21144,
      "byteOffset": 18556,
      "byteStride": 12,
      "name": "floatBufferViews",
      "target": 34962
    }
  ],
  "buffers": [
    {
      "byteLength": 39700,
      "uri": "scene.bin"
    }
  ],
  "extensionsUsed": [
    "KHR_materials_specular"
  ],
  "images": [
    {
      "uri": "textures/Material_25_baseColor.png"
    }
  ],
  "materials": [
    {
      "doubleSided": true,
      "extensions": {
        "KHR_materials_specular": {
          "specularColorFactor": [
            1.0,
            1.0,
            1.0
          ],
          "specularFactor": 0.0
        }
      },
      "name": "Material_25",
      "pbrMetallicRoughness": {
        "baseColorTexture": {
          "index": 0
        },
        "metallicFactor": 0.0,
        "roughnessFactor": 0.8929713596497552
      }
    }
  ],
  "meshes": [
    {
      "name": "Root_Material #25_0",
      "primitives": [
        {
          "attributes": {
            "NORMAL": 1,
            "POSITION": 0,
            "TEXCOORD_0": 2
          },
          "indices": 3,
          "material": 0,
          "mode": 4
        }
      ]
    }
  ],
  "nodes": [
    {
      "children": [
        1
      ],
      "matrix": [
        1.0,
        0.0,
        0.0,
        0.0,
        0.0,
        2.220446049250313e-16,
        -1.0,
        0.0,
        0.0,
        1.0,
        2.220446049250313e-16,
        0.0,
        0.0,
        0.0,
        0.0,
        1.0
      ],
      "name": "Sketchfab_model"
    },
    {
      "children": [
        2
      ],
      "matrix": [
        0.02539999969303608,
        0.0,
        0.0,
        0.0,
        0.0,
        0.0,
        0.02539999969303608,
        0.0,
        0.0,
        -0.02539999969303608,
        0.0,
        0.0,
        0.0,
        0.0,
        0.0,
        1.0
      ],
      "name": "model.fbx"
    },
    {
      "children": [
        3
      ],
      "name": "RootNode"
    },
    {
      "children": [
        4
      ],
      "matrix": [
        1.0,
        0.0,
        0.0,
        0.0,
        0.0,
        0.9994280337230229,
        -0.033817235376834134,
        0.0,
        0.0,
        0.033817235376834134,
        0.9994280337230229,
        0.0,
        4.5634806156158447e-07,
        -17.924175262451172,
        -10.437996864318848,
        1.0
      ],
      "name": "Root"
    },
    {
      "mesh": 0,
      "name": "Root_Material #25_0"
    }
  ],
  "samplers": [
    {
      "magFilter": 9729,
      "minFilter": 9987,
      "wrapS": 10497,
      "wrapT": 10497
    }
  ],
  "scene": 0,
  "scenes": [
    {
      "name": "Sketchfab_Scene",
      "nodes": [
        0
      ]
    }
  ],
  "textures": [
    {
      "sampler": 0,
      "source": 0
    }
  ]
}
