{
  "accessors": [
    {
      "bufferView": 2,
      "componentType": 5126,
      "count": 833,
      "max": [
        87.19418334960938,
        79.96797180175781,
        15.855566024780273
      ],
      "min": [
        -90.21654510498047,
        -100.01971435546875,
        -25.074613571166992
      ],
      "type": "VEC3"
    },
    {
      "bufferView": 2,
      "byteOffset": 9996,
      "componentType": 5126,
      "count": 833,
      "max": [
        0.9991722702980042,
        0.9991801977157593,
        0.9998527765274048
      ],
      "min": [
        -0.9991791844367981,
        -0.9992797374725342,
        -0.9997456073760986
      ],
      "type": "VEC3"
    },
    {
      "bufferView": 1,
      "componentType": 5126,
      "count": 833,
      "max": [
        1.0,
        0.9994238615036011
      ],
      "min": [
        0.0020217783749103546,
        -0.0010693073272705078
      ],
      "type": "VEC2"
    },
    {
      "bufferView": 0,
      "componentType": 5125,
      "count": 2988,
      "type": "SCALAR"
    }
  ],
  "asset": {
    "extras": {
      "author": "TheBGamer (https://sketchfab.com/TheBGamer)",
      "license": "CC-BY-4.0 (http://creativecommons.org/licenses/by/4.0/)",
      "source": "https://sketchfab.com/3d-models/gta-vice-city-swat-5456deae7b5e43c9b921bd4f9645cf95",
      "title": "GTA: Vice City (S.W.A.T.)"
    },
    "generator": "Sketchfab-16.12.0",
    "version": "2.0"
  },
  "bufferViews": [
    {
      "buffer": 0,
      "byteLength": 11952,
      "name": "floatBufferViews",
      "target": 34963
    },
    {
      "buffer": 0,
      "byteLength": 6664,
      "byteOffset": 11952,
      "byteStride": 8,
      "name": "floatBufferViews",
      "target": 34962
    },
    {
      "buffer": 0,
      "byteLength": 19992,
      "byteOffset": 18616,
      "byteStride": 12,
      "name": "floatBufferViews",
      "target": 34962
    }
  ],
  "buffers": [
    {
      "byteLength": 38608,
      "uri": "scene.bin"
    }
  ],
  "extensionsUsed": [
    "KHR_materials_specular"
  ],
  "images": [
    {
      "uri": "textures/Material_26_baseColor.png"
    }
  ],
  "materials": [
    {
      "doubleSided": true,
      "extensions": {
        "KHR_materials_specular": {
          "specularColorFactor": [
            1.0,
            1.0,
            1.0
          ],
          "specularFactor": 0.0
        }
      },
      "name": "Material_26",
      "pbrMetallicRoughness": {
        "baseColorTexture": {
          "index": 0
        },
        "metallicFactor": 0.0,
        "roughnessFactor": 0.8929713596497552
      }
    }
  ],
  "meshes": [
    {
      "name": "Root_Material #26_0",
      "primitives": [
        {
          "attributes": {
            "NORMAL": 1,
            "POSITION": 0,
            "TEXCOORD_0": 2
          },
          "indices": 3,
          "material": 0,
          "mode": 4
        }
      ]
    }
  ],
  "nodes": [
    {
      "children": [
        1
      ],
      "matrix": [
        1.0,
        0.0,
        0.0,
        0.0,
        0.0,
        2.220446049250313e-16,
        -1.0,
        0.0,
        0.0,
        1.0,
        2.220446049250313e-16,
        0.0,
        0.0,
        0.0,
        0.0,
        1.0
      ],
      "name": "Sketchfab_model"
    },
    {
      "children": [
        2
      ],
      "matrix": [
        0.02539999969303608,
        0.0,
        0.0,
        0.0,
        0.0,
        0.0,
        0.02539999969303608,
        0.0,
        0.0,
        -0.02539999969303608,
        0.0,
        0.0,
        0.0,
        0.0,
        0.0,
        1.0
      ],
      "name": "model.fbx"
    },
    {
      "children": [
        3
      ],
      "name": "RootNode"
    },
    {
      "children": [
        4
      ],
      "matrix": [
        1.0,
        0.0,
        0.0,
        0.0,
        0.0,
        0.999991100991015,
        -0.004218760336598512,
        0.0,
        0.0,
        0.004218760336598512,
        0.999991100991015,
        0.0,
        1.564621925354004e-07,
        -9.737845420837402,
        -3.5534472465515137,
        1.0
      ],
      "name": "Root"
    },
    {
      "mesh": 0,
      "name": "Root_Material #26_0"
    }
  ],
  "samplers": [
    {
      "magFilter": 9729,
      "minFilter": 9987,
      "wrapS": 10497,
      "wrapT": 10497
    }
  ],
  "scene": 0,
  "scenes": [
    {
      "name": "Sketchfab_Scene",
      "nodes": [
        0
      ]
    }
  ],
  "textures": [
    {
      "sampler": 0,
      "source": 0
    }
  ]
}
